# xmcd CD database file
#
# Track frame offsets:
#	150
#	20667
#	41257
#	62285
#	83975
#	98240
#	113867
#	138757
#	153167
#	175355
#	190715
#	209137
#	229232
#	246997
#
# Disc length: 3332 seconds
#
# Revision: 2
# Processed by: cddbd v1.5.2PL0 Copyright (c) Steve Scherf et al.
# Submitted via: CDex 1.77
#
DISCID=b80d020e
DTITLE=Ron Spielman - The Body and The Beat - Wild World
DYEAR=1993
DGENRE=Rock
TTITLE0=Try and Use
TTITLE1=Willows
TTITLE2=Say You Want
TTITLE3=You're in my Ear
TTITLE4=Butchermann's Groove
TTITLE5=Move on
TTITLE6=No One Sins
TTITLE7=Wild World
TTITLE8=Pick me up at Midnight
TTITLE9=Stand by You
TTITLE10=Wait for me
TTITLE11=Heat of the Night
TTITLE12=Mr. Pittifull
TTITLE13=Wild World ~ reprise
EXTD=P and C by The Body and The Beat 1993\n\nGuitars and Vocals - Ron Spielmann\nKeyboards and Vocals - Thomas Sachs - Klaus Spath\nDrums - Michael Fleischmann\nBass - Gerd Binder\n\nRecordrd and Mixed at Power Sound Studio Uehlfeld - Germany\nby Rudi Benedikt in
EXTD=1992 - 1993 YEAR: 1993
EXTT0=Spielmann
EXTT1=Sachs - Spielmann
EXTT2=Spielmann
EXTT3=Sachs - Spielmann
EXTT4=Fleischmann - Spielmann
EXTT5=Spielmann
EXTT6=Sachs - Spielmann
EXTT7=Sachs - Spielmann
EXTT8=Sachs - Spielmann
EXTT9=Spielmann
EXTT10=Sachs - Spielmann
EXTT11=Binder  - Spielmann
EXTT12=O. Retting
EXTT13=
PLAYORDER=
